# 3ds Max Wavefront OBJ Exporter v0.97b - (c)2007 guruware
# File Created: 01.06.2015 06:24:08

mtllib coffee table.mtl

#
# object Component_42_001
#

v  6.3255 8.5000 -306.7041
v  -2.6709 8.5000 -306.7041
v  -2.6709 8.5000 -297.7077
v  6.3255 8.5000 -297.7077
v  -2.6709 8.2500 -306.7041
v  6.3255 8.2500 -306.7041
v  6.3255 8.2500 -297.7077
v  -2.6709 8.2500 -297.7077
# 8 vertices

vn 0.0000 1.0000 -0.0000
vn 0.0000 -1.0000 -0.0000
vn 1.0000 0.0000 -0.0000
vn -0.0000 0.0000 -1.0000
vn -1.0000 0.0000 0.0000
vn 0.0000 0.0000 1.0000
# 6 vertex normals

vt 0.0000 0.0000 0.0000
# 1 texture coords

g Component_42_001
usemtl wire_224086086
s off
f 1/1/1 2/1/1 3/1/1 
f 3/1/1 4/1/1 1/1/1 
f 5/1/2 6/1/2 7/1/2 
f 7/1/2 8/1/2 5/1/2 
f 1/1/3 4/1/3 7/1/3 
f 7/1/3 6/1/3 1/1/3 
f 5/1/4 2/1/4 1/1/4 
f 1/1/4 6/1/4 5/1/4 
f 3/1/5 2/1/5 5/1/5 
f 5/1/5 8/1/5 3/1/5 
f 3/1/6 8/1/6 7/1/6 
f 7/1/6 4/1/6 3/1/6 
# 12 faces

#
# object Component_40_003
#

v  -3.9227 1.5000 -313.9559
v  -3.9227 1.5000 -312.4559
v  -9.9227 1.5000 -312.4559
v  -9.9227 1.5000 -313.9559
v  -3.9227 7.0000 -312.4559
v  -3.9227 7.0000 -313.9559
v  -9.9227 7.0000 -313.9559
v  -9.9227 7.0000 -312.4559
# 8 vertices

vn 0.0000 -1.0000 -0.0000
vn 0.0000 1.0000 -0.0000
vn 0.0000 0.0000 -1.0000
vn 1.0000 0.0000 0.0000
vn -0.0000 0.0000 1.0000
vn -1.0000 0.0000 -0.0000
# 6 vertex normals

vt 1.4792 0.0208 0.7292
vt 1.3542 0.0208 0.7292
vt 1.3542 -0.4792 0.7292
vt 1.4792 -0.4792 0.7292
vt -0.3542 0.0208 0.2708
vt -0.4792 0.0208 0.2708
vt -0.4792 -0.4792 0.2708
vt -0.3542 -0.4792 0.2708
vt 0.7292 -0.4792 1.4792
vt 0.7292 0.0208 1.4792
vt 0.2708 0.0208 1.4792
vt 0.2708 -0.4792 1.4792
vt 0.7292 1.4792 0.0208
vt 0.2708 1.4792 0.0208
vt 0.2708 1.3542 0.0208
vt 0.7292 1.3542 0.0208
vt 0.2708 0.0208 1.3542
vt 0.2708 -0.4792 1.3542
vt 0.7292 -0.4792 1.3542
vt 0.7292 0.0208 1.3542
vt 0.7292 1.4792 -0.4792
vt 0.2708 1.4792 -0.4792
vt 0.2708 1.3542 -0.4792
vt 0.7292 1.3542 -0.4792
# 24 texture coords

g Component_40_003
usemtl wire_229154215
s off
f 9/2/7 10/3/7 11/4/7 
f 11/4/7 12/5/7 9/2/7 
f 13/6/8 14/7/8 15/8/8 
f 15/8/8 16/9/8 13/6/8 
f 15/10/9 14/11/9 9/12/9 
f 9/12/9 12/13/9 15/10/9 
f 9/14/10 14/15/10 13/16/10 
f 13/16/10 10/17/10 9/14/10 
f 13/18/11 16/19/11 11/20/11 
f 11/20/11 10/21/11 13/18/11 
f 15/22/12 12/23/12 11/24/12 
f 11/24/12 16/25/12 15/22/12 
# 12 faces

#
# object Component_40_002
#

v  12.0773 1.5000 -313.9559
v  13.5773 1.5000 -313.9559
v  13.5773 1.5000 -307.9559
v  12.0773 1.5000 -307.9559
v  13.5773 7.0000 -313.9559
v  12.0773 7.0000 -313.9559
v  12.0773 7.0000 -307.9559
v  13.5773 7.0000 -307.9559
# 8 vertices

vn 0.0000 -1.0000 -0.0000
vn 0.0000 1.0000 -0.0000
vn -1.0000 0.0000 0.0000
vn -0.0000 0.0000 -1.0000
vn 1.0000 0.0000 -0.0000
vn 0.0000 0.0000 1.0000
# 6 vertex normals

vt 1.4792 1.3542 0.7292
vt 1.4792 1.4792 0.7292
vt 0.9792 1.4792 0.7292
vt 0.9792 1.3542 0.7292
vt -0.4792 1.4792 0.2708
vt -0.4792 1.3542 0.2708
vt 0.0208 1.3542 0.2708
vt 0.0208 1.4792 0.2708
vt 0.7292 0.9792 1.3542
vt 0.7292 1.4792 1.3542
vt 0.2708 1.4792 1.3542
vt 0.2708 0.9792 1.3542
vt 0.2708 1.3542 1.4792
vt 0.7292 1.3542 1.4792
vt 0.7292 1.4792 1.4792
vt 0.2708 1.4792 1.4792
vt 0.2708 0.9792 1.4792
vt 0.7292 0.9792 1.4792
vt 0.2708 1.3542 0.9792
vt 0.7292 1.3542 0.9792
vt 0.7292 1.4792 0.9792
vt 0.2708 1.4792 0.9792
# 22 texture coords

g Component_40_002
usemtl wire_229154215
s off
f 17/26/13 18/27/13 19/28/13 
f 19/28/13 20/29/13 17/26/13 
f 21/30/14 22/31/14 23/32/14 
f 23/32/14 24/33/14 21/30/14 
f 23/34/15 22/35/15 17/36/15 
f 17/36/15 20/37/15 23/34/15 
f 17/38/16 22/39/16 21/40/16 
f 21/40/16 18/41/16 17/38/16 
f 21/41/17 24/42/17 19/43/17 
f 19/43/17 18/40/17 21/41/17 
f 23/44/18 20/45/18 19/46/18 
f 19/46/18 24/47/18 23/44/18 
# 12 faces

#
# object Component_40_001
#

v  13.5773 1.5000 -291.9559
v  13.5773 1.5000 -290.4559
v  7.5773 1.5000 -290.4559
v  7.5773 1.5000 -291.9559
v  13.5773 7.0000 -290.4559
v  13.5773 7.0000 -291.9559
v  7.5773 7.0000 -291.9559
v  7.5773 7.0000 -290.4559
# 8 vertices

vn 0.0000 -1.0000 -0.0000
vn 0.0000 1.0000 -0.0000
vn 0.0000 0.0000 -1.0000
vn 1.0000 0.0000 0.0000
vn -0.0000 0.0000 1.0000
vn -1.0000 0.0000 -0.0000
# 6 vertex normals

vt -0.3542 1.4792 0.7292
vt -0.4792 1.4792 0.7292
vt -0.4792 0.9792 0.7292
vt -0.3542 0.9792 0.7292
vt 1.4792 1.4792 0.2708
vt 1.3542 1.4792 0.2708
vt 1.3542 0.9792 0.2708
vt 1.4792 0.9792 0.2708
vt 0.7292 0.9792 -0.3542
vt 0.7292 1.4792 -0.3542
vt 0.2708 1.4792 -0.3542
vt 0.2708 0.9792 -0.3542
vt 0.7292 -0.3542 1.4792
vt 0.2708 -0.3542 1.4792
vt 0.2708 -0.4792 1.4792
vt 0.7292 -0.4792 1.4792
vt 0.2708 1.4792 -0.4792
vt 0.2708 0.9792 -0.4792
vt 0.7292 0.9792 -0.4792
vt 0.7292 1.4792 -0.4792
vt 0.7292 -0.3542 0.9792
vt 0.2708 -0.3542 0.9792
vt 0.2708 -0.4792 0.9792
vt 0.7292 -0.4792 0.9792
# 24 texture coords

g Component_40_001
usemtl wire_229154215
s off
f 25/48/19 26/49/19 27/50/19 
f 27/50/19 28/51/19 25/48/19 
f 29/52/20 30/53/20 31/54/20 
f 31/54/20 32/55/20 29/52/20 
f 31/56/21 30/57/21 25/58/21 
f 25/58/21 28/59/21 31/56/21 
f 25/60/22 30/61/22 29/62/22 
f 29/62/22 26/63/22 25/60/22 
f 29/64/23 32/65/23 27/66/23 
f 27/66/23 26/67/23 29/64/23 
f 31/68/24 28/69/24 27/70/24 
f 27/70/24 32/71/24 31/68/24 
# 12 faces

#
# object Component_39_001
#

v  -10.1727 0.0000 -314.2060
v  13.8273 0.0000 -314.2060
v  13.8273 0.0000 -290.2060
v  -10.1727 0.0000 -290.2060
v  13.8273 1.5000 -314.2060
v  -10.1727 1.5000 -314.2060
v  -10.1727 1.5000 -290.2060
v  13.8273 1.5000 -290.2060
# 8 vertices

vn 0.0000 -1.0000 -0.0000
vn 0.0000 1.0000 -0.0000
vn 1.0000 0.0000 -0.0000
vn 0.0000 0.0000 1.0000
vn -1.0000 0.0000 0.0000
vn -0.0000 0.0000 -1.0000
# 6 vertex normals

vt 1.5000 1.5000 0.2708
vt -0.5000 1.5000 0.2708
vt -0.5000 -0.5000 0.2708
vt 1.5000 -0.5000 0.2708
vt 1.5000 1.5000 0.1458
vt -0.5000 1.5000 0.1458
vt -0.5000 -0.5000 0.1458
vt 1.5000 -0.5000 0.1458
vt 0.1458 1.5000 1.5000
vt 0.1458 -0.5000 1.5000
vt 0.2708 -0.5000 1.5000
vt 0.2708 1.5000 1.5000
vt 1.5000 0.1458 -0.5000
vt 1.5000 0.2708 -0.5000
vt -0.5000 0.2708 -0.5000
vt -0.5000 0.1458 -0.5000
vt 0.8542 -0.5000 -0.5000
vt 0.8542 1.5000 -0.5000
vt 0.7292 1.5000 -0.5000
vt 0.7292 -0.5000 -0.5000
vt -0.5000 0.2708 1.5000
vt -0.5000 0.1458 1.5000
vt 1.5000 0.1458 1.5000
vt 1.5000 0.2708 1.5000
# 24 texture coords

g Component_39_001
usemtl wire_229154215
s off
f 33/72/25 34/73/25 35/74/25 
f 35/74/25 36/75/25 33/72/25 
f 37/76/26 38/77/26 39/78/26 
f 39/78/26 40/79/26 37/76/26 
f 37/80/27 40/81/27 35/82/27 
f 35/82/27 34/83/27 37/80/27 
f 39/84/28 36/85/28 35/86/28 
f 35/86/28 40/87/28 39/84/28 
f 39/88/29 38/89/29 33/90/29 
f 33/90/29 36/91/29 39/88/29 
f 33/92/30 38/93/30 37/94/30 
f 37/94/30 34/95/30 33/92/30 
# 12 faces

#
# object Component_41_001
#

v  -10.1727 7.0000 -314.2060
v  13.8273 7.0000 -314.2060
v  13.8273 7.0000 -290.2060
v  -10.1727 7.0000 -290.2060
v  13.8273 8.5000 -314.2060
v  -10.1727 8.5000 -314.2060
v  -2.6709 8.5000 -306.7042
v  6.3255 8.5000 -306.7042
v  6.3255 8.5000 -297.7078
v  13.8273 8.5000 -290.2060
v  -10.1727 8.5000 -290.2060
v  -2.6709 8.5000 -297.7078
v  6.3255 8.2500 -306.7042
v  -2.6709 8.2500 -306.7042
v  -2.6709 8.2500 -297.7078
v  6.3255 8.2500 -297.7078
# 16 vertices

vn 0.0000 -1.0000 -0.0000
vn 0.0000 1.0000 -0.0000
vn 1.0000 0.0000 -0.0000
vn 0.0000 0.0000 1.0000
vn -1.0000 0.0000 0.0000
vn -0.0000 0.0000 -1.0000
# 6 vertex normals

vt 1.5000 1.5000 0.2708
vt -0.5000 1.5000 0.2708
vt -0.5000 -0.5000 0.2708
vt 1.5000 -0.5000 0.2708
vt 1.5000 1.5000 0.1458
vt -0.5000 1.5000 0.1458
vt 0.1252 0.8748 0.1458
vt 0.8748 0.8748 0.1458
vt 0.8748 0.1252 0.1458
vt 1.5000 -0.5000 0.1458
vt -0.5000 -0.5000 0.1458
vt 0.1252 0.1252 0.1458
vt 0.1458 1.5000 1.5000
vt 0.1458 -0.5000 1.5000
vt 0.2708 -0.5000 1.5000
vt 0.2708 1.5000 1.5000
vt 1.5000 0.1458 -0.5000
vt 1.5000 0.2708 -0.5000
vt -0.5000 0.2708 -0.5000
vt -0.5000 0.1458 -0.5000
vt 0.8542 -0.5000 -0.5000
vt 0.8542 1.5000 -0.5000
vt 0.7292 1.5000 -0.5000
vt 0.7292 -0.5000 -0.5000
vt -0.5000 0.2708 1.5000
vt -0.5000 0.1458 1.5000
vt 1.5000 0.1458 1.5000
vt 1.5000 0.2708 1.5000
vt 0.8748 0.8748 0.1667
vt 0.1252 0.8748 0.1667
vt 0.1252 0.1252 0.1667
vt 0.8748 0.1252 0.1667
vt 0.8542 0.1252 0.8748
vt 0.8542 0.8748 0.8748
vt 0.8333 0.8748 0.8748
vt 0.8333 0.1252 0.8748
vt 0.8748 0.1458 0.8748
vt 0.8748 0.1667 0.8748
vt 0.1252 0.1667 0.8748
vt 0.1252 0.1458 0.8748
vt 0.1458 0.8748 0.1252
vt 0.1458 0.1252 0.1252
vt 0.1667 0.1252 0.1252
vt 0.1667 0.8748 0.1252
vt 0.1252 0.1667 0.1252
vt 0.1252 0.1458 0.1252
vt 0.8748 0.1458 0.1252
vt 0.8748 0.1667 0.1252
# 48 texture coords

g Component_41_001
usemtl wire_229154215
s off
f 41/96/31 42/97/31 43/98/31 
f 43/98/31 44/99/31 41/96/31 
f 45/100/32 46/101/32 47/102/32 
f 45/100/32 47/102/32 48/103/32 
f 45/100/32 48/103/32 49/104/32 
f 50/105/32 45/100/32 49/104/32 
f 51/106/32 50/105/32 49/104/32 
f 51/106/32 49/104/32 52/107/32 
f 52/107/32 47/102/32 46/101/32 
f 51/106/32 52/107/32 46/101/32 
f 45/108/33 50/109/33 43/110/33 
f 43/110/33 42/111/33 45/108/33 
f 51/112/34 44/113/34 43/114/34 
f 43/114/34 50/115/34 51/112/34 
f 51/116/35 46/117/35 41/118/35 
f 41/118/35 44/119/35 51/116/35 
f 41/120/36 46/121/36 45/122/36 
f 45/122/36 42/123/36 41/120/36 
f 53/124/32 54/125/32 55/126/32 
f 55/126/32 56/127/32 53/124/32 
f 49/128/35 48/129/35 53/130/35 
f 53/130/35 56/131/35 49/128/35 
f 47/132/34 54/133/34 53/134/34 
f 53/134/34 48/135/34 47/132/34 
f 47/136/33 52/137/33 55/138/33 
f 55/138/33 54/139/33 47/136/33 
f 55/140/36 52/141/36 49/142/36 
f 49/142/36 56/143/36 55/140/36 
# 28 faces

#
# object Component_40_004
#

v  -9.9227 1.5000 -296.4559
v  -8.4227 1.5000 -296.4559
v  -8.4227 1.5000 -290.4559
v  -9.9227 1.5000 -290.4559
v  -8.4227 7.0000 -296.4559
v  -9.9227 7.0000 -296.4559
v  -9.9227 7.0000 -290.4559
v  -8.4227 7.0000 -290.4559
# 8 vertices

vn 0.0000 -1.0000 -0.0000
vn 0.0000 1.0000 -0.0000
vn -1.0000 0.0000 0.0000
vn -0.0000 0.0000 -1.0000
vn 1.0000 0.0000 -0.0000
vn 0.0000 0.0000 1.0000
# 6 vertex normals

vt 0.0208 -0.4792 0.7292
vt 0.0208 -0.3542 0.7292
vt -0.4792 -0.3542 0.7292
vt -0.4792 -0.4792 0.7292
vt 0.9792 -0.3542 0.2708
vt 0.9792 -0.4792 0.2708
vt 1.4792 -0.4792 0.2708
vt 1.4792 -0.3542 0.2708
vt 0.7292 -0.4792 -0.4792
vt 0.7292 0.0208 -0.4792
vt 0.2708 0.0208 -0.4792
vt 0.2708 -0.4792 -0.4792
vt 0.2708 -0.4792 0.0208
vt 0.7292 -0.4792 0.0208
vt 0.7292 -0.3542 0.0208
vt 0.2708 -0.3542 0.0208
vt 0.2708 0.0208 -0.3542
vt 0.2708 -0.4792 -0.3542
vt 0.7292 -0.4792 -0.3542
vt 0.7292 0.0208 -0.3542
vt 0.7292 -0.3542 -0.4792
vt 0.2708 -0.3542 -0.4792
# 22 texture coords

g Component_40_004
usemtl wire_229154215
s off
f 57/144/37 58/145/37 59/146/37 
f 59/146/37 60/147/37 57/144/37 
f 61/148/38 62/149/38 63/150/38 
f 63/150/38 64/151/38 61/148/38 
f 63/152/39 62/153/39 57/154/39 
f 57/154/39 60/155/39 63/152/39 
f 57/156/40 62/157/40 61/158/40 
f 61/158/40 58/159/40 57/156/40 
f 61/160/41 64/161/41 59/162/41 
f 59/162/41 58/163/41 61/160/41 
f 63/155/42 60/152/42 59/164/42 
f 59/164/42 64/165/42 63/155/42 
# 12 faces

